<svg xmlns="http://www.w3.org/2000/svg" viewBox="0 0 32 32">
  <rect width="32" height="32" rx="6" fill="#1f2937"/>
  <g transform="translate(6,3)" stroke="#4ade80" stroke-width="1.5" fill="none" stroke-linecap="round" stroke-linejoin="round">
    <!-- Guitar body -->
    <path d="M10 26c-4.5 0-7-2.5-7-6 0-2 1-3.5 2.5-4.5C6.5 14.8 7 13.5 7 12c0-2 1-4 3-5l0-5.5" />
    <path d="M10 26c4.5 0 7-2.5 7-6 0-2-1-3.5-2.5-4.5C13.5 14.8 13 13.5 13 12c0-2-1-4-3-5l0-5.5" />
    <!-- Sound hole -->
    <circle cx="10" cy="20" r="2.5"/>
    <!-- Strings -->
    <line x1="8.5" y1="1.5" x2="8.5" y2="24" stroke-width="0.7" opacity="0.5"/>
    <line x1="10" y1="1.5" x2="10" y2="24" stroke-width="0.7" opacity="0.5"/>
    <line x1="11.5" y1="1.5" x2="11.5" y2="24" stroke-width="0.7" opacity="0.5"/>
    <!-- Tuning pegs -->
    <circle cx="8.5" cy="1.5" r="1" fill="#4ade80" stroke="none"/>
    <circle cx="11.5" cy="1.5" r="1" fill="#4ade80" stroke="none"/>
  </g>
</svg>
